<svg height="512pt" viewBox="-107 0 512 512" width="512pt" xmlns="http://www.w3.org/2000/svg"><path d="m76.8125 405.027344c3.171875 9.339844 9.785156 16.886718 18.644531 21.257812 6.949219 3.417969 14.578125 4.554688 22.050781 3.363282 3.621094 6.625 9.242188 12.074218 16.089844 15.441406 5.238282 2.585937 10.800782 3.808594 16.285156 3.804687 13.621094-.003906 26.746094-7.566406 33.171876-20.582031 1.734374-3.484375 2.894531-7.25 3.445312-11.117188 10.097656-2.78125 18.535156-9.664062 23.265625-19.246093 8.757813-17.757813 1.875-39.234375-15.277344-48.683594.273438-14.105469-7.636719-27.488281-20.589843-33.878906-.003907 0-.003907 0-.003907 0-12.824219-6.328125-27.761719-4.71875-38.804687 3.757812-17.988282-8.003906-39.324219-.410156-48.121094 17.394531-4.773438 9.664063-5.089844 20.585938-1.09375 30.296876-2.941406 2.894531-5.386719 6.277343-7.199219 9.992187-4.367187 8.84375-5.03125 18.859375-1.863281 28.199219zm15.367188-21.566406c1.660156-3.40625 4.203124-6.320313 7.347656-8.425782 3.40625-2.277344 4.359375-6.863281 2.148437-10.3125-4.191406-6.535156-4.648437-14.578125-1.21875-21.519531 5.34375-10.820313 18.496094-15.277344 29.320313-9.933594.035156.019531.074218.035157.113281.054688.675781.320312 1.398437.726562 2.203125 1.25 3.039062 1.964843 7.046875 1.484375 9.539062-1.136719 6.652344-7.003906 16.941407-8.835938 25.605469-4.5625 8.765625 4.324219 13.636719 14.042969 11.847657 23.628906-.671876 3.582032 1.324218 7.128906 4.734374 8.417969.84375.316406 1.726563.664063 2.488282 1.042969 10.832031 5.34375 15.304687 18.5 9.964844 29.324218-3.382813 6.851563-9.984376 11.378907-17.660157 12.113282-3.964843.378906-6.945312 3.785156-6.800781 7.761718.136719 3.6875-.617188 7.203126-2.238281 10.46875-5.347657 10.832032-18.503907 15.300782-29.328125 9.960938-5.421875-2.667969-9.398438-7.304688-11.191406-13.058594-.613282-1.960937-2.003907-3.585937-3.84375-4.5-1.050782-.519531-2.195313-.78125-3.339844-.78125-.867188 0-1.738282.152344-2.566406.453125-5.6875 2.066407-11.796876 1.738281-17.203126-.917969-5.242187-2.589843-9.164062-7.0625-11.042968-12.59375-1.875-5.53125-1.484375-11.464843 1.121094-16.734374zm0 0"/><path d="m129.257812 406.027344c4.082032 2.011718 8.414063 2.96875 12.683594 2.964844 10.601563-.003907 20.824219-5.894532 25.839844-16.035157 3.394531-6.890625 3.902344-14.691406 1.425781-21.964843-2.46875-7.265626-7.621093-13.128907-14.503906-16.511719-6.875-3.398438-14.664063-3.914063-21.9375-1.445313-7.28125 2.46875-13.15625 7.628906-16.539063 14.503906-3.40625 6.871094-3.925781 14.664063-1.464843 21.9375 2.464843 7.28125 7.617187 13.160157 14.496093 16.550782zm.457032-31.828125c1.613281-3.285157 4.414062-5.742188 7.882812-6.917969 1.441406-.488281 2.921875-.730469 4.398438-.730469 2.074218-.003906 4.132812.476563 6.046875 1.421875.003906.003906.011719.007813.019531.011719 3.273438 1.609375 5.726562 4.398437 6.902344 7.855469 1.179687 3.46875.9375 7.183594-.675782 10.457031-3.355468 6.785156-11.59375 9.585937-18.375 6.234375-3.28125-1.613281-5.730468-4.414062-6.902343-7.878906-1.171875-3.460938-.925781-7.164063.703125-10.453125zm0 0"/><path d="m276.164062 0-240.027343.0820312c-12.707031.0039063-21.273438 7.9374998-25.464844 23.5820308l-9.519531 35.554688c-2.898438 10.890625.210937 18.007812 3.328125 22.0625 4.183593 5.441406 11.042969 8.6875 18.34375 8.683594l28.617187-.007813c1.257813 0 2.320313 1.058594 2.324219 2.3125l.015625 51.84375h-2.488281c-10.25.003907-18.585938 8.34375-18.582031 18.589844l.007812 23.828125c.003906 8.472656 5.695312 15.625 13.449219 17.863281l-21.648438 49.585938c-1.164062 2.675781-2.195312 4.878906-3.105469 6.824219-4.21875 9.023437-5.933593 13.226562-5.929687 26.835937l.0625 181.621094c.007813 23.574219 17.042969 42.746093 37.972656 42.738281l181.117188-.0625c20.949219-.007812 37.980469-19.191406 37.972656-42.761719l-.023437-66.929687c0-4.152344-3.367188-7.523438-7.523438-7.519532-4.152344 0-7.519531 3.371094-7.519531 7.523438l.023437 66.929688c.003906 15.277343-10.28125 27.707031-22.933594 27.714843l-181.117187.0625c-12.636719.003907-22.917969-12.421875-22.921875-27.699219l-.0625-181.625c-.003906-10.800781.953125-12.84375 4.511719-20.453124.949219-2.027344 2.023437-4.328126 3.269531-7.183594l23.953125-54.867188 82.007813-.027344-.035157 17.40625c.066407 21.554688 11.921875 41.125 28.832031 47.597657l63.554688 24.285156c22.160156 8.46875 22.554688 26.40625 21.351562 57.375-.21875 5.621094-.445312 11.433594-.445312 17.277344 0 4.15625 3.371094 7.523437 7.527344 7.519531 4.152344 0 7.519531-3.371094 7.515625-7.523438 0-5.550781.21875-11.214843.433593-16.6875 1.132813-29.144531 2.308594-59.277343-31.011718-72.015624l-63.554688-24.285157c-9.480468-3.628906-19.105468-16.332031-19.160156-33.554687l.035156-17.429688c9.988282-.304687 18.019532-8.515625 18.015625-18.585937l-.007812-23.828125c-.003907-10.246094-8.34375-18.578125-18.59375-18.574219h-1.070313l-.015625-51.84375c0-1.257813 1.046875-2.316406 2.292969-2.316406l22.65625-.007813c3.261719 37.792969 39.371094 89.464844 78.246094 96.875 3.128906.601563 6.367187 1.078125 9.421875 1.078125 4.964843-.003906 9.4375-1.269531 12.144531-5.324219 4.976562-7.449218-1.472656-17.230468-4.574219-21.929687-13.988281-21.207031-22.574219-44.96875-25.613281-70.722656l23.976562-.007813c12.554688-.003906 22.761719-11.46875 22.757813-25.554687l-.011719-38.8125c-.003906-14.070313-10.222656-25.51562525-22.777344-25.511719zm-113.882812 162.65625.007812 23.828125c0 1.933594-1.621093 3.566406-3.542968 3.566406l-6.941406.003907-94.46875.03125h-6.03125c-1.917969 0-3.542969-1.632813-3.542969-3.5625l-.007813-23.828126c0-1.917968 1.621094-3.539062 3.542969-3.539062l107.4375-.035156c1.921875 0 3.542969 1.621094 3.546875 3.535156zm-19.679688-70.417969.015626 51.84375-73.792969.027344-.015625-51.84375c-.003906-9.574219-7.796875-17.359375-17.371094-17.355469l-28.617188.007813c-2.054687.003906-4.820312-.734375-6.414062-2.808594-1.914062-2.488281-1.445312-6.28125-.71875-9.011719l9.519531-35.542968c2.921875-10.917969 6.984375-12.425782 10.933594-12.425782l217.0625-.074218.019531 59.789062-93.292968.03125c-9.558594 0-17.332032 7.792969-17.328126 17.363281zm122.675782 76.65625c.992187 1.503907 1.734375 2.734375 2.289062 3.734375-1.042968-.125-2.332031-.320312-3.898437-.621094-31.152344-5.933593-62.652344-50.597656-65.984375-82.101562l39.390625-.011719c3.121093 28.773438 12.585937 55.324219 28.203125 79zm18.632812-104.566406c.003906 5.691406-3.535156 10.503906-7.722656 10.503906l-7.925781.003907-.019531-59.789063 7.925781-.003906c4.1875 0 7.726562 4.796875 7.730469 10.472656zm0 0"/></svg>